FILE "Quiz King of Fighters (1995)(Saurus - SNK)(JP).img" BINARY
  TRACK 01 MODE1/2352
    INDEX 01 00:00:00
  TRACK 02 AUDIO
    PREGAP 00:02:00
    INDEX 00 02:18:12
    INDEX 01 02:19:12
  TRACK 03 AUDIO
    INDEX 00 04:07:40
    INDEX 01 04:09:40
  TRACK 04 AUDIO
    INDEX 00 06:50:33
    INDEX 01 06:52:33
  TRACK 05 AUDIO
    INDEX 00 07:14:03
    INDEX 01 07:16:03
  TRACK 06 AUDIO
    INDEX 00 07:46:63
    INDEX 01 07:48:63
  TRACK 07 AUDIO
    INDEX 00 08:20:66
    INDEX 01 08:22:66
  TRACK 08 AUDIO
    INDEX 00 10:29:66
    INDEX 01 10:31:66
  TRACK 09 AUDIO
    INDEX 00 12:39:46
    INDEX 01 12:41:46
  TRACK 10 AUDIO
    INDEX 00 14:51:63
    INDEX 01 14:53:63
  TRACK 11 AUDIO
    INDEX 00 17:08:14
    INDEX 01 17:10:14
  TRACK 12 AUDIO
    INDEX 00 19:24:30
    INDEX 01 19:26:30
  TRACK 13 AUDIO
    INDEX 00 19:51:73
    INDEX 01 19:53:73
  TRACK 14 AUDIO
    INDEX 00 22:05:59
    INDEX 01 22:07:59
  TRACK 15 AUDIO
    INDEX 00 24:55:56
    INDEX 01 24:57:56
  TRACK 16 AUDIO
    INDEX 00 27:11:44
    INDEX 01 27:13:44
  TRACK 17 AUDIO
    INDEX 00 29:25:30
    INDEX 01 29:27:30
  TRACK 18 AUDIO
    INDEX 00 31:38:03
    INDEX 01 31:40:03
  TRACK 19 AUDIO
    INDEX 00 33:54:18
    INDEX 01 33:56:18
  TRACK 20 AUDIO
    INDEX 00 36:05:48
    INDEX 01 36:07:48
  TRACK 21 AUDIO
    INDEX 00 38:25:51
    INDEX 01 38:27:51
  TRACK 22 AUDIO
    INDEX 00 39:18:06
    INDEX 01 39:20:06
  TRACK 23 AUDIO
    INDEX 00 39:35:07
    INDEX 01 39:37:07
  TRACK 24 AUDIO
    INDEX 00 40:26:43
    INDEX 01 40:28:43
  TRACK 25 AUDIO
    INDEX 00 41:19:14
    INDEX 01 41:21:14
  TRACK 26 AUDIO
    INDEX 00 42:10:38
    INDEX 01 42:12:38
  TRACK 27 AUDIO
    INDEX 00 44:25:53
    INDEX 01 44:27:53
  TRACK 28 AUDIO
    INDEX 00 46:41:04
    INDEX 01 46:43:04
  TRACK 29 AUDIO
    INDEX 00 49:00:38
    INDEX 01 49:02:38
  TRACK 30 AUDIO
    INDEX 00 49:18:58
    INDEX 01 49:20:58
  TRACK 31 AUDIO
    INDEX 00 50:03:48
    INDEX 01 50:05:48
  TRACK 32 AUDIO
    INDEX 00 52:19:04
    INDEX 01 52:21:04
  TRACK 33 AUDIO
    INDEX 00 53:04:61
    INDEX 01 53:06:61
  TRACK 34 AUDIO
    INDEX 00 53:26:05
    INDEX 01 53:28:05
  TRACK 35 AUDIO
    INDEX 00 53:42:07
    INDEX 01 53:44:07
  TRACK 36 AUDIO
    INDEX 00 54:11:09
    INDEX 01 54:13:09
  TRACK 37 AUDIO
    INDEX 00 54:28:12
    INDEX 01 54:30:12
  TRACK 38 AUDIO
    INDEX 00 57:03:44
    INDEX 01 57:05:44
  TRACK 39 AUDIO
    INDEX 00 59:17:41
    INDEX 01 59:19:41
  TRACK 40 AUDIO
    INDEX 00 61:33:58
    INDEX 01 61:35:58
  TRACK 41 AUDIO
    INDEX 00 63:18:74
    INDEX 01 63:20:74
  TRACK 42 AUDIO
    INDEX 00 65:46:72
    INDEX 01 65:48:72
  TRACK 43 AUDIO
    INDEX 00 66:05:56
    INDEX 01 66:07:56
  TRACK 44 AUDIO
    INDEX 00 66:53:46
    INDEX 01 66:55:46
  TRACK 45 AUDIO
    INDEX 00 67:47:49
    INDEX 01 67:49:49
  TRACK 46 AUDIO
    INDEX 00 68:16:50
    INDEX 01 68:18:50
  TRACK 47 AUDIO
    INDEX 00 69:13:20
    INDEX 01 69:15:20
  TRACK 48 AUDIO
    INDEX 00 70:30:07
    INDEX 01 70:32:07
  TRACK 49 AUDIO
    INDEX 00 72:38:39
    INDEX 01 72:40:39
